<?xml version="1.0" encoding="UTF-8"?>
<svg id="Layer_2" data-name="Layer 2" xmlns="http://www.w3.org/2000/svg" viewBox="0 0 681.04 912.5">
  <defs>
    <style>
  
      .cls-2 {
        stroke: #fff;
      }

      .cls-2, .cls-3, .cls-4 {
        fill: none;
        stroke-width: 5px;
      }

      .cls-2, .cls-3, .cls-4, .cls-5 {
        stroke-miterlimit: 10;
      }

      .cls-3 {
        stroke: #000;
      }

      .cls-4 {
        stroke: #9611d3;
      }

      .cls-5 {
        fill: #fff;
        stroke: #5e5ef1;
        stroke-width: 3px;
      }
    </style>
  </defs>

  <g>
    <rect class="cls-2" x="49.69" y="352.22" width="350.98" height="438.47" transform="translate(450.36 1142.91) rotate(-180)"/>
    <line class="cls-2" x1="91.45" y1="352.22" x2="91.45" y2="258.91"/>
  </g>
  <path class="cls-5" d="M275.95,192.2c.09,3.38-.04,6.85,1.05,10.06s3.76,6.16,7.14,6.39c6.52,.44,9.75-8.44,15.96-10.44,4.98-1.6,11.93,1.05,14.71-3.38,1.31-2.08,.81-4.89-.51-6.97s-3.31-3.61-5.16-5.22c-5.28-4.59-9.75-10.12-13.11-16.25-3.43-6.25-5.69-13.06-8.72-19.52-2.97-6.33-6.66-12.3-10.34-18.25-1.81-2.93-3.68-5.92-6.4-8.04s-6.51-3.2-9.67-1.84c-4.37,1.88-5.85,7.37-9.48,10.46-2.52,2.15-6.33,3.49-6.94,6.75-.61,3.28,2.02,4.58,4.63,5.01,3.41,.56,2.45-1.56,5.8,.96,4.61,3.46,8.34,10.07,11.13,15,6.08,10.73,9.59,22.94,9.91,35.29Z"/>
  <path class="cls-5" d="M198.09,111.59c5.1,.25,10.11-1.23,15.16-2.02s10.59-.76,14.8,2.13c5.68,3.9,7.21,11.7,12.09,16.56,1.17,1.17,2.65,2.19,4.3,2.19,2.47,0,4.33-2.24,5.45-4.45s1.96-4.71,3.93-6.19c1.52-1.15,3.48-1.51,5.18-2.35s3.28-2.61,2.83-4.45c-.48-1.97-2.83-2.71-4.79-3.25-4.45-1.22-8.72-3.13-12.61-5.63-3.63-2.34-6.94-5.19-10.83-7.08-6.4-3.1-13.91-3.3-20.89-1.9s-13.56,4.27-20.08,7.12c-9.32,4.08-1.09,8.99,5.45,9.32Z"/>
  <path class="cls-5" d="M298.39,430.42c11.24,6.51,24.62,9.38,37.52,7.77,1.52-.19,3.1-.43,4.57,.03,4.64,1.47,4.5,8,3.52,12.77-18.8,91.55,1.86,186.49-4.59,279.72-.64,9.19-1.56,18.47-4.71,27.13-2.44,6.7-6.73,13.37-13.48,15.69-12.58,4.33-17.49-7.6-15.32-17.15,3.21-14.15,5.93-27.74,6.54-42.31,1.21-29.15-2.78-58.18-4.23-87.24-1.88-37.62,.56-76.05-9.88-112.24-8.12-28.17-23.97-54.73-24.46-84.04-.09-5.41,2.33-12.63,7.71-12,2.35,.27,4.17,2.11,5.89,3.73,3.31,3.14,6.98,5.86,10.92,8.14Z"/>
  <path class="cls-5" d="M373.6,436.02c2.83,.33,5.69,.85,8.09,2.36,4.22,2.67,6.15,7.98,6.13,12.97-.02,4.99-1.67,9.81-3.19,14.57-15.88,49.79-18.78,102.69-16.9,154.6,.98,26.93,5.32,54,7.82,80.82,1.56,16.71,3.1,33.44,3.98,50.21,.69,13.01,4.92,33.71-16.16,27.3-4.7-1.43-8.88-4.2-12.76-7.22-3.1-2.41-6.2-5.22-7.28-9-.78-2.71-.42-5.59-.05-8.38,9.58-73.05-8.65-145.1-1.05-217.94,3.35-30.33,12.31-61.44,3.68-90.71-.89-3.02-1.68-6.96,.9-8.77,.97-.68,2.21-.84,3.39-.96,7.58-.76,15.23-.74,22.8,.08,.2,.02,.4,.04,.6,.07Z"/>
  <g>
    <rect class="cls-3" x="253.9" y="2.5" width="350.98" height="438.47" transform="translate(858.78 443.47) rotate(-180)"/>
    <line class="cls-3" x1="560.32" y1="534.29" x2="560.32" y2="440.97"/>
    <line class="cls-4" x1="560.32" y1="488.54" x2="560.32" y2="488.44"/>
  </g>
  <path class="cls-5" d="M221.58,295.08c3.77,7.13,4.62,15.46,7.91,22.82,1.76,3.94,4.2,7.54,5.96,11.47,2.04,4.56,3.15,9.48,4.84,14.18s4.13,9.35,8.14,12.33c4.84,3.6,11.72,4.21,17.12,1.52,4.4-2.19,7.62-6.25,11.94-8.58,2.32-1.25,5.3-2.45,5.63-5.06,.12-.94-.16-1.87-.48-2.76-2.3-6.27-7.31-11.49-13.48-14.04-2.79-1.15-5.82-1.79-8.33-3.46-1.84-1.22-3.3-2.91-4.72-4.6-4.47-5.31-8.88-10.97-10.67-17.68-2.98-11.15,1.77-22.78,2.16-34.32,.07-2.09-.05-4.32-1.27-6.02-1.07-1.48-2.81-2.31-4.5-2.99-3.19-1.28-6.65-2.29-10.03-1.69-4.57,.81-7.89,4.27-11.16,7.27-3.3,3.03-8,4.93-10.89,8.24-3.55,4.08-1.43,7.53,1.77,10.91,3.71,3.92,7.49,7.59,10.05,12.42Z"/>
  <path class="cls-5" d="M220.25,255.92c-3.15,2.43-5.21,5.96-7.3,9.34-.53,.87-1.1,1.75-1.92,2.35-2.22,1.63-5.56,.52-7.35-1.57s-2.48-4.88-3.32-7.51c-4.9-15.37-16.19-27.77-23.66-42.07-1.57-3.01-2.88-6.94-.7-9.54,.83-.99,2.04-1.57,3.2-2.12,3.78-1.79,7.55-3.58,11.33-5.37,.64-.3,1.34-.62,2.03-.48,1.4,.28,1.82,2.03,2,3.44,1.44,11.38,6.16,23.21,15.98,29.14,2.37,1.43,4.95,2.46,7.52,3.49,3.36,1.35,6.73,2.69,10.09,4.04,1.01,.4,2.05,.83,2.75,1.67,.51,.61,.78,1.39,1.01,2.15,.82,2.81,1.53,7.86-1.34,9.83s-7.12,.74-10.33,3.23Z"/>
  <path class="cls-5" d="M177.55,178.78c-8.7-4.71-16.92-10.31-24.49-16.67-1.87-1.57-3.77-3.23-6.08-4.03s-5.19-.5-6.76,1.37c-1.68,2.01-1.31,5.06-.15,7.41,3.44,7.01,12.01,9.86,16.93,15.92,4.3,5.3,5.2,12.16,7.64,18.33,4.16,10.53,6.28,5.06,12.49-.2,3.66-3.1,9.78-3.44,11.72-7.82,1.23-2.77,.07-6.12-1.97-8.35s-4.84-3.6-7.52-5.01c-.6-.32-1.21-.64-1.81-.96Z"/>
  <path class="cls-5" d="M306.44,203.99c9.55-1.94,20.86,2.41,24.22,11.56,1.81,4.92,1.15,10.36,.47,15.56-.82,6.3-1.65,12.61-2.47,18.91-2.6,19.92-5.2,39.85-8.56,59.66-2.31,13.64-4.82,28.42,1.56,40.69,1.48,2.85,3.48,5.88,2.72,9-.97,3.95-6.01,5.57-9.97,4.61s-7.22-3.65-10.78-5.61c-3.56-1.97-8.09-3.19-11.6-1.12-1.02,.6-1.95,1.48-3.13,1.63-.91,.12-1.82-.22-2.6-.7-3.65-2.29-4.38-7.5-3.06-11.61s4.19-7.49,6.51-11.12c6.47-10.1,8.84-22.21,11.08-34,2.64-13.86,5.28-27.96,3.81-42-1.27-12.13-6.03-24.56-15.26-32.86-2.96-2.67-3.94-2.33-3.1-6.15,.6-2.72,3.19-5.72,5.02-7.72,3.97-4.37,9.3-7.55,15.11-8.73Z"/>
  <path class="cls-5" d="M294.34,53.36c1.23-.44,2.58-.98,3.12-2.17,.7-1.52-.34-3.33-1.71-4.28s-3.05-1.36-4.5-2.19c-2.84-1.62-4.53-4.63-6.43-7.29-2.74-3.85-6.16-7.21-10.06-9.88-2.37-1.62-5.6-2.98-7.96-1.35-2.15,1.48-2.27,4.77-1.02,7.05s3.48,3.83,5.57,5.38,4.21,3.34,5.03,5.81c.62,1.87,.42,3.9,.36,5.87s.09,4.07,1.25,5.66c3.16,4.3,12.76-1.34,16.35-2.61Z"/>
  <path class="cls-5" d="M329.79,99.46c1.32-.54,2.67-1.09,4.1-1.1,5.2,0,7.42,6.51,8.25,11.65,4.32,26.67,11.14,52.92,20.36,78.32,1.81,5,3.42,11.39-.51,14.98-4.27,3.9-11.03,.94-16.79,1.38-4,.3-7.63,2.33-11.5,3.38-3.87,1.05-8.65,.81-11.04-2.4,4.1-14.76,8-29.83,7.64-45.15-.3-12.67-3.64-25.23-9.52-36.44-1.72-3.29-9.91-11.98-9.38-15.4,.65-4.24,14.66-7.67,18.41-9.22Z"/>
  <path class="cls-5" d="M301.3,79.25c1.94,5.82,2.41,12,3.52,18.03,.53,2.88,2.01,6.41,4.94,6.34,2.93-.07,4.24-3.65,6.43-5.6,3.08-2.73,7.8-2.07,11.72-3.34,.61-.2,1.23-.46,1.65-.94,.82-.94,.65-2.39,.21-3.55-.83-2.19-2.4-4-3.94-5.76-8.19-9.35-16.37-18.71-24.56-28.06-.91-1.04-1.92-2.14-3.27-2.45-1-.23-2.03,.02-3.03,.27-4.84,1.2-17.34,5.31-8.35,9.92,7.26,3.72,11.95,6.92,14.69,15.15Z"/>
  <path class="cls-5" d="M365.2,209.41c4.82,2.98,7.27,8.81,7.62,14.46s-1.11,11.24-2.56,16.72c-5.54,20.98-11.07,41.96-16.61,62.94-1.17,4.42-2.34,8.85-3.05,13.37-1.76,11.09-.75,22.47,1.51,33.48,.29,1.43,.6,2.92,.17,4.31s-1.9,2.58-3.29,2.15c-.58-.18-1.06-.6-1.5-1.02-3.15-2.99-6.16-6.68-10.44-7.4-4.26-.72-8.75,1.77-12.86,.41-4.92-1.64-6.58-8.1-5.18-13.1,1.4-5,4.88-9.1,7.38-13.64,3.36-6.09,4.95-12.97,6.51-19.74,3.61-15.71,7.23-31.5,8.46-47.58,.37-4.78,.47-9.81-1.67-14.09-2.65-5.29-7.71-8.68-7.58-15.09,.08-3.78,1.37-7.18,4.12-9.73,6.91-6.38,20.18-11.88,28.96-6.45Z"/>
  <path class="cls-5" d="M412.71,253.71c4.83,4.96,6.43,12.81,3.94,19.27-1.64,4.25-4.79,7.71-7.36,11.48-2.9,4.26-5.08,8.95-7.28,13.61-9.45,19.99-19.53,39.68-30.23,59.03-3.49-3.95-1.36-10.07-1.87-15.32-.44-4.43-2.9-8.49-3.24-12.94-.09-1.23-.02-2.49,.33-3.68,.41-1.39,1.18-2.64,1.93-3.88,9.57-15.62,19.18-32.35,19.47-50.67,.06-3.91-.31-7.85,.35-11.7,2.15-12.68,15.86-13.53,23.96-5.2Z"/>
  <path class="cls-5" d="M380.18,227.65c4.46,.45,9.38,1.14,12.29,4.55,2.74,3.21,2.82,8,1.6,12.04-1.22,4.05-3.55,7.66-5.26,11.52-2.45,5.54-3.62,11.55-5.06,17.43-4.14,16.9-10.69,33.1-16.23,49.59-.68,2.03-1.36,4.09-1.48,6.23-.11,1.9,.22,3.79,.49,5.67,1.09,7.42,1.43,14.94,1,22.43-3.39,.55-6.78,1.11-10.17,1.66-2.01,.33-4.57,.4-5.51-1.4-.4-.77-.37-1.68-.33-2.55,.26-6.74-.27-13.52-1.55-20.14-.39-2-.85-4.05-.55-6.07,.36-2.44,1.78-4.57,2.94-6.74,2.12-3.96,3.45-8.28,4.78-12.57,1.5-4.85,2.99-9.7,4.49-14.55,2.23-7.23,4.48-14.53,4.94-22.08,.2-3.26,.06-6.53,.14-9.8,.2-8.02,1.72-15.93,3.63-23.7,.66-2.67,1.06-8.4,2.88-10.47,1.92-2.17,4.19-1.34,6.97-1.06Z"/>
  <path class="cls-5" d="M372.25,69.83c-6.64-5.16-10.1-14.46-18.04-17.25-1.1-.39-2.41-.6-3.37,.06-1.05,.73-1.24,2.2-1.12,3.48,.37,3.94,2.94,7.59,6.52,9.27,.96,.45,1.99,.77,2.93,1.27,3.05,1.64,4.73,5.04,5.61,8.39,.71,2.7,1.05,5.58,2.55,7.93,1.5,2.35,4.69,3.97,7.13,2.6,1.96-1.11,3.15-3.32,5.08-4.57,1.73-1.13,4.24-1.06,4.15-3.76-.12-3.63-8.85-5.42-11.42-7.42Z"/>
  <path class="cls-5" d="M443.45,96.82c1,1.54,1.37,3.39,1.76,5.18,2.42,11.19,6.34,22.05,11.61,32.21-4.15-.33-8.42,1.33-11.25,4.38-3.16-3.42-4.96-8.06-4.93-12.71,.02-2.23,.43-4.43,.55-6.66,.23-4.43-.77-8.91-2.85-12.82-1.1-2.07-2.51-4-3.33-6.2-2.69-7.22,4.9-8.87,8.46-3.38Z"/>
  <path class="cls-5" d="M387.76,99.91c4.57,8.69,9.21,17.6,10.54,27.33,.32,2.31,.49,4.8,1.92,6.65s4.65,2.5,5.98,.58c.84-1.22,.61-2.99,1.58-4.12,.84-.98,2.27-1.13,3.56-1.21,2.29-.14,4.59-.29,6.88-.43,1-.06,2.06-.15,2.85-.77,1.27-.99,1.27-3.01,.47-4.42-.8-1.4-2.18-2.36-3.46-3.34-7.93-6.09-13.36-14.81-18.3-23.51-2.17-3.82-4.32-7.73-7.49-10.77s-7.58-5.12-11.91-4.38c-4.92,.83-7.78,6.11-3.13,9.29,1.65,1.13,3.89,1.01,5.65,2.42,2.12,1.7,3.62,4.3,4.86,6.67Z"/>
  <path class="cls-5" d="M455.46,137.53c2.63,1.95,2.74,5.76,2.7,9.04-.14,9.82,.48,19.64,1.86,29.37,.25,1.76,.56,3.6,1.68,4.98-1.89,2.12-5.07,2.43-7.91,2.33s-5.84-.45-8.39,.8c-.52,.25-1.07,.58-1.63,.46-.28-.06-.52-.22-.75-.4-3.11-2.41-3.33-7.14-2.06-10.86,1.28-3.72,3.71-6.96,5.12-10.63,2.61-6.82,.37-12.73,.57-19.58,.12-4.03,4.53-8.67,8.81-5.5Z"/>
  <path class="cls-5" d="M419.48,133.41c1.03-.49,2.09-.98,3.23-1.05,3.16-.19,5.63,3.11,5.78,6.26,.16,3.16-1.31,6.14-2.67,9-9.59,20.11-15.61,41.71-21.59,63.18-.9,3.22-1.8,6.48-2.03,9.81-.13,1.89-.05,3.84-.77,5.59s-2.55,3.24-4.39,2.8c-.97-.23-1.74-.95-2.56-1.52-3.41-2.39-7.84-2.51-11.96-3.1s-8.66-2.15-10.36-5.95c-1.97-4.41,.85-9.39,3.72-13.27,3.99-5.39,8.29-10.56,11.92-16.2,6.19-9.63,10.27-20.44,14.3-31.16,1.18-3.13,2.37-6.3,2.99-9.59,.38-2.03-.08-5.13,.78-7.01,1.88-4.06,9.75-5.97,13.6-7.8Z"/>
  <path class="cls-5" d="M453.82,184.29c3.15-.14,6.64,1.87,6.97,5,.22,2.09-.95,4.04-2.07,5.82-11.29,17.79-22.57,35.58-33.86,53.37-1.14,1.79-2.45,3.72-4.49,4.29-2.77,.77-5.51-1.31-7.3-3.56s-3.3-4.94-5.89-6.16c-2.82-1.33-6.7-.85-8.5-3.4-1.8-2.55,.12-6.24,2.8-7.83,2.68-1.59,5.92-1.92,8.78-3.17,6.56-2.86,10.05-9.9,14.96-15.1,3.87-4.09,8.74-7.11,12.78-11.04,3.43-3.34,5.35-6.96,6.58-11.51,1.16-4.29,4.18-6.47,9.24-6.7Z"/>
  <path class="cls-5" d="M260.28,363.04c2.88-.97,5.35-2.87,8.08-4.2,3.28-1.59,6.96-2.34,10.59-2.15,2.03,.1,4.14,.54,5.69,1.84,2.56,2.15,2.87,5.96,2.56,9.29s-1,6.82,.23,9.93c.25,.63,.58,1.26,.53,1.94-.11,1.52-1.93,2.19-3.41,2.57-4.94,1.3-9.65,3.47-13.84,6.39-.77,.53-1.57,1.11-2.51,1.18-.5,.04-1-.08-1.48-.22-7.11-1.95-12.91-7.56-15.72-14.29-.93-2.23-3.13-7.83-1.45-10.08,1.88-2.52,7.94-1.27,10.72-2.2Z"/>
  <path class="cls-5" d="M367.35,362.13c1.26,.51,2.05,1.81,2.31,3.14,.26,1.33,.08,2.7-.1,4.04-.45,3.32-.91,6.63-1.36,9.95-.21,1.55-.46,3.18-1.44,4.4-1.07,1.32-2.79,1.88-4.41,2.38-.81,.25-1.65,.5-2.5,.4-1.57-.18-2.75-1.49-4.22-2.08-2.65-1.07-5.86,.34-8.46-.86-1.49-.69-2.49-2.12-3.33-3.53-2.01-3.35-3.58-6.97-4.67-10.72-.42-1.47-.71-3.23,.32-4.36,1.97-2.15,9.36-2.14,12.04-1.86s5.46,.69,8.25,.57c1.56-.07,6.43-1.91,7.57-1.46Z"/>
  <path class="cls-5" d="M303.19,360.54c1.69,1.07,3.11,2.52,4.75,3.66,2.11,1.46,4.59,2.39,7.15,2.66,.9,1.76-.11,3.95-1.56,5.3s-3.29,2.23-4.68,3.64c-1.61,1.62-2.51,3.93-2.44,6.21,.03,.92,.15,2.01-.56,2.6-.38,.32-.91,.39-1.4,.43-4,.35-8.08-.35-11.74-2.02-2.47-1.13-4.95-3-5.36-5.68-.24-1.55,.26-3.1,.66-4.61,.97-3.67-.13-10.38,2.78-12.83s9.45-1.22,12.4,.64Z"/>
  <path class="cls-5" d="M303.44,409.13c-.71,1.9-1.46,3.8-1.63,5.79-.44,5.09,2.95,10.1,1.87,15.1-5.32-.81-7.5-7.12-11.21-11.01-1.81-1.89-4.09-3.26-6.29-4.68-5.56-3.6-10.79-7.71-15.59-12.27-1.41-1.33-2.88-2.99-2.68-4.92,.2-1.85,1.85-3.14,3.38-4.2,2.26-1.57,4.52-3.13,6.8-4.68,2.17-1.47,4.4-2.95,6.93-3.61,4.66-1.2,12.08-.05,14.52,4.29,1.83,3.25,3.61,6.8,4.58,10.42,.83,3.1-.62,7.5,1.29,10.07,4.79,6.45,19.23,2.73,24.52-.76,2.06-1.36,4.18-3.11,6.64-2.94,3.16,.23,5.12,3.43,6.54,6.25,2.32,4.61,4.64,9.22,6.97,13.83,.43,.86,.88,1.86,.51,2.75-.26,.64-.89,1.05-1.48,1.41-6.28,3.87-13.14,7.06-20.46,7.94-7.32,.88-15.18-.79-20.71-5.66-5.53-4.87-8.17-13.23-5.29-20.01,.53-1.24,2.12-2.55,3-1.52"/>
  <path class="cls-5" d="M369.28,395.17c1.4,2.45,1.59,5.84-.34,7.91-.75,.81-1.75,1.34-2.61,2.05-2.03,1.68-3.11,4.21-4.01,6.68-.9,2.47-1.72,5.05-3.41,7.07s-4.51,3.36-6.98,2.47c-1.57-.56-2.72-1.89-3.77-3.19-3.97-4.88-7.62-10.02-10.92-15.38-.81-1.32-1.64-2.82-1.32-4.34,.45-2.19,2.92-3.2,4.54-4.75,1.26-1.2,2.05-2.82,3.22-4.1,2.39-2.61,6.18-3.58,9.72-3.35,6.15,.4,12.71,3.38,15.89,8.93Z"/>
  <path class="cls-5" d="M315.48,374.66c3.1-1.18,6.31,1.14,9.5,2.06,3.3,.95,6.84,.37,10.23,.91,4.11,.65,7.91,3.02,10.31,6.42,.3,.43,.6,.91,.6,1.43,0,.47-.23,.91-.49,1.31-2.38,3.71-6.99,5.61-9.14,9.45-1.51,2.71-1.54,6.19-.06,8.92-5.96,2.81-12.19,5.06-18.57,6.72-2.38,.62-4.86,1.16-7.29,.75s-4.81-2-5.46-4.37c-.41-1.5-.1-3.09,.02-4.65,.45-5.6-2.85-10.09,.41-15.17,1.7-2.65,3.72-4.81,5.22-7.64,1.21-2.3,2.05-5.14,4.72-6.15Z"/>
  <path class="cls-5" d="M337.81,351.35c3.43,1.28,5.82,4.34,8.04,7.25,.46,.61,.94,1.29,.88,2.05-.09,1.13-1.33,1.8-2.45,1.95s-2.3-.03-3.36,.36c-1.83,.68-2.7,2.87-2.57,4.82s.99,3.76,1.64,5.6c.65,1.84,1.1,3.9,.38,5.71-2.11,.42-3.95-1.42-6.03-1.96-1.81-.47-3.73,.07-5.6-.11-2.78-.26-5.18-2.08-7.92-2.59-1.33-.25-2.71-.18-4.04-.46s-2.68-1.02-3.15-2.29c-.62-1.67,.59-3.55,2.15-4.41s3.4-.99,5.15-1.31,3.6-.96,4.6-2.44c1.21-1.79,.78-4.19,.19-6.27-1.15-4.09-2.85-5.35,1.14-6.45,2.95-.82,8.1-.52,10.94,.54Z"/>
</svg>