<?xml version="1.0" encoding="UTF-8"?>
<svg id="Layer_2" data-name="Layer 2" xmlns="http://www.w3.org/2000/svg" viewBox="0 0 545.84 941.34">
  <defs>
    <style>
      .cls-1 {
        fill: #26282d;
        stroke: #fff;
        stroke-width: 2px;
      }

      .cls-1, .cls-2, .cls-3, .cls-4 {
        stroke-miterlimit: 10;
      }

      .cls-2 {
        stroke: #00f9ff;
      }

      .cls-2, .cls-3, .cls-4 {
        fill: none;
        stroke-width: 5px;
      }

      .cls-3 {
        stroke: #9611d3;
      }

      .cls-4 {
        stroke: #7600ff;
      }

      .cls-5 {
        font-family: Graphik-Bold, Graphik;
        font-size: 72px;
        font-weight: 700;
        letter-spacing: .05em;
      }
    </style>
  </defs>
  <g>
    <rect class="cls-4" x="2.5" y="368.96" width="375.85" height="469.53" transform="translate(380.85 1207.45) rotate(-180)"/>
    <path class="cls-1" d="M163.63,319.16c4.04,7.63,4.94,16.56,8.47,24.44,1.89,4.21,4.5,8.07,6.39,12.29,2.19,4.88,3.37,10.15,5.19,15.19s4.43,10.01,8.72,13.21c5.18,3.86,12.55,4.51,18.33,1.63,4.71-2.35,8.16-6.69,12.79-9.18,2.49-1.34,5.67-2.62,6.03-5.42,.13-1-.17-2.01-.52-2.95-2.46-6.71-7.83-12.3-14.44-15.03-2.98-1.23-6.23-1.92-8.92-3.7-1.97-1.3-3.54-3.12-5.06-4.93-4.79-5.69-9.51-11.75-11.43-18.93-3.19-11.94,1.89-24.4,2.31-36.75,.08-2.24-.05-4.63-1.36-6.44-1.14-1.59-3-2.47-4.82-3.2-3.41-1.38-7.12-2.45-10.74-1.81-4.9,.87-8.45,4.57-11.95,7.79s-8.57,5.28-11.66,8.83c-3.8,4.37-1.53,8.06,1.89,11.68,3.97,4.2,8.02,8.13,10.76,13.3Z"/>
    <rect class="cls-2" x="167.49" y="2.5" width="375.85" height="469.53" transform="translate(710.84 474.53) rotate(-180)"/>
    <path class="cls-1" d="M162.21,277.22c-3.37,2.6-5.58,6.38-7.82,10.01-.57,.93-1.17,1.87-2.05,2.52-2.38,1.75-5.95,.56-7.87-1.68s-2.66-5.23-3.56-8.04c-5.25-16.46-17.34-29.74-25.33-45.05-1.68-3.22-3.09-7.43-.75-10.21,.89-1.06,2.18-1.68,3.43-2.27,4.05-1.92,8.09-3.84,12.14-5.75,.69-.33,1.43-.66,2.18-.51,1.5,.29,1.95,2.17,2.14,3.68,1.54,12.18,6.6,24.86,17.11,31.2,2.54,1.53,5.3,2.64,8.05,3.74,3.6,1.44,7.2,2.88,10.8,4.32,1.08,.43,2.2,.89,2.94,1.78,.55,.65,.84,1.48,1.08,2.3,.88,3.01,1.64,8.42-1.44,10.52s-7.62,.8-11.06,3.46Z"/>
    <path class="cls-1" d="M116.49,194.63c-9.31-5.05-18.11-11.04-26.22-17.86-2.01-1.69-4.04-3.46-6.51-4.31s-5.56-.54-7.24,1.47c-1.8,2.15-1.4,5.42-.16,7.93,3.69,7.51,12.86,10.56,18.13,17.05,4.61,5.67,5.57,13.03,8.18,19.63,4.46,11.28,6.72,5.42,13.38-.22,3.91-3.32,10.47-3.68,12.55-8.37,1.32-2.96,.08-6.55-2.11-8.94s-5.18-3.86-8.05-5.36c-.65-.34-1.29-.68-1.93-1.03Z"/>
    <path class="cls-1" d="M138.49,122.67c5.46,.27,10.82-1.32,16.23-2.16s11.34-.81,15.85,2.28c6.08,4.18,7.72,12.53,12.94,17.74,1.25,1.25,2.84,2.35,4.61,2.35,2.65,0,4.64-2.4,5.84-4.76s2.1-5.04,4.21-6.63c1.63-1.23,3.72-1.61,5.55-2.52s3.52-2.79,3.03-4.77c-.52-2.11-3.03-2.91-5.13-3.48-4.77-1.31-9.34-3.35-13.5-6.03-3.89-2.5-7.44-5.56-11.6-7.58-6.86-3.32-14.89-3.53-22.37-2.04-7.47,1.49-14.52,4.57-21.5,7.63-9.98,4.37-1.16,9.63,5.84,9.98Z"/>
    <path class="cls-1" d="M221.86,208.99c.09,3.62-.04,7.34,1.12,10.77s4.03,6.59,7.64,6.84c6.98,.47,10.44-9.04,17.1-11.18,5.33-1.72,12.77,1.12,15.75-3.62,1.4-2.23,.86-5.24-.54-7.46s-3.54-3.87-5.53-5.59c-5.66-4.91-10.44-10.83-14.04-17.4-3.67-6.69-6.1-13.99-9.34-20.9-3.18-6.78-7.13-13.17-11.07-19.54-1.94-3.14-3.94-6.34-6.86-8.61s-6.97-3.43-10.36-1.97c-4.68,2.02-6.27,7.89-10.15,11.2-2.7,2.3-6.78,3.74-7.43,7.23-.65,3.51,2.17,4.91,4.95,5.37,3.65,.6,2.62-1.67,6.21,1.03,4.94,3.7,8.93,10.78,11.92,16.06,6.51,11.49,10.27,24.57,10.61,37.78Z"/>
    <path class="cls-1" d="M254.51,221.62c10.23-2.08,22.34,2.58,25.94,12.38,1.94,5.27,1.23,11.1,.51,16.67-.88,6.75-1.76,13.5-2.64,20.25-2.78,21.34-5.57,42.68-9.16,63.89-2.47,14.6-5.16,30.43,1.68,43.57,1.59,3.05,3.73,6.3,2.91,9.64-1.04,4.23-6.44,5.96-10.67,4.93s-7.73-3.91-11.55-6.01c-3.81-2.11-8.67-3.41-12.42-1.2-1.09,.64-2.09,1.58-3.35,1.75-.97,.13-1.95-.23-2.78-.75-3.91-2.46-4.69-8.04-3.27-12.43s4.48-8.02,6.98-11.91c6.93-10.82,9.47-23.79,11.87-36.41,2.82-14.84,5.66-29.94,4.08-44.97-1.36-12.99-6.46-26.3-16.34-35.19-3.17-2.86-4.22-2.49-3.32-6.59,.64-2.91,3.42-6.12,5.37-8.27,4.25-4.68,9.96-8.09,16.18-9.35Z"/>
    <path class="cls-1" d="M241.56,60.32c1.32-.47,2.76-1.05,3.34-2.32,.75-1.63-.36-3.57-1.84-4.58s-3.27-1.46-4.82-2.34c-3.04-1.73-4.85-4.96-6.88-7.81-2.93-4.12-6.6-7.72-10.77-10.58-2.53-1.74-6-3.19-8.53-1.45-2.3,1.58-2.43,5.1-1.09,7.55s3.73,4.1,5.97,5.76,4.5,3.58,5.38,6.23c.67,2,.45,4.17,.39,6.28s.09,4.36,1.34,6.06c3.38,4.6,13.66-1.43,17.51-2.8Z"/>
    <path class="cls-1" d="M279.52,109.68c1.41-.58,2.86-1.17,4.39-1.17,5.57,0,7.94,6.97,8.83,12.47,4.63,28.55,11.93,56.67,21.8,83.87,1.94,5.35,3.66,12.2-.54,16.04-4.57,4.17-11.81,1.01-17.98,1.48-4.28,.32-8.17,2.49-12.31,3.62s-9.26,.87-11.83-2.57c4.4-15.81,8.57-31.95,8.18-48.35-.32-13.56-3.89-27.02-10.2-39.03-1.85-3.52-10.61-12.83-10.05-16.49,.69-4.54,15.7-8.21,19.71-9.87Z"/>
    <path class="cls-1" d="M249,88.04c2.07,6.23,2.59,12.85,3.77,19.31,.57,3.09,2.15,6.87,5.29,6.79,3.14-.08,4.54-3.91,6.88-5.99,3.29-2.93,8.35-2.22,12.55-3.58,.65-.21,1.32-.49,1.77-1.01,.88-1.01,.7-2.56,.22-3.81-.89-2.34-2.57-4.28-4.22-6.17-8.77-10.02-17.53-20.03-26.3-30.05-.98-1.12-2.05-2.3-3.5-2.62-1.07-.24-2.18,.02-3.24,.29-5.18,1.28-18.57,5.69-8.94,10.62,7.78,3.98,12.8,7.41,15.73,16.22Z"/>
    <path class="cls-1" d="M317.43,227.42c5.16,3.19,7.79,9.43,8.16,15.49,.37,6.05-1.19,12.04-2.74,17.9-5.93,22.46-11.86,44.93-17.79,67.39-1.25,4.74-2.5,9.48-3.27,14.32-1.89,11.88-.81,24.07,1.62,35.85,.31,1.53,.65,3.13,.19,4.62s-2.03,2.76-3.52,2.3c-.62-.19-1.13-.64-1.6-1.09-3.37-3.2-6.6-7.15-11.18-7.93-4.57-.77-9.37,1.9-13.77,.44-5.27-1.75-7.04-8.68-5.55-14.03s5.22-9.74,7.91-14.61c3.59-6.52,5.3-13.88,6.97-21.14,3.86-16.83,7.74-33.73,9.06-50.95,.39-5.12,.51-10.5-1.79-15.09-2.83-5.66-8.26-9.29-8.12-16.16,.08-4.05,1.46-7.69,4.41-10.41,7.4-6.83,21.61-12.73,31.02-6.91Z"/>
    <path class="cls-1" d="M368.3,274.86c5.17,5.31,6.89,13.71,4.22,20.63-1.76,4.55-5.13,8.26-7.88,12.29-3.11,4.56-5.44,9.59-7.8,14.58-10.11,21.41-20.91,42.49-32.37,63.21-3.73-4.23-1.45-10.78-2.01-16.4-.47-4.75-3.1-9.1-3.46-13.85-.1-1.32-.02-2.67,.35-3.94,.44-1.49,1.26-2.83,2.07-4.16,10.25-16.73,20.54-34.64,20.85-54.26,.07-4.18-.33-8.4,.37-12.53,2.3-13.58,16.98-14.49,25.66-5.57Z"/>
    <path class="cls-1" d="M333.47,246.96c4.78,.49,10.04,1.22,13.16,4.87,2.94,3.44,3.02,8.57,1.71,12.9-1.31,4.33-3.8,8.2-5.63,12.34-2.63,5.93-3.87,12.37-5.42,18.67-4.44,18.1-11.44,35.44-17.38,53.11-.73,2.17-1.45,4.38-1.58,6.67-.12,2.03,.23,4.06,.53,6.08,1.17,7.94,1.53,16,1.07,24.02-3.63,.59-7.26,1.19-10.89,1.78-2.15,.35-4.9,.43-5.9-1.5-.43-.82-.39-1.8-.36-2.73,.27-7.22-.29-14.48-1.67-21.57-.42-2.15-.91-4.33-.59-6.5,.38-2.61,1.9-4.89,3.15-7.22,2.27-4.24,3.7-8.87,5.12-13.46,1.6-5.19,3.21-10.39,4.81-15.58,2.39-7.74,4.79-15.56,5.29-23.65,.21-3.49,.07-6.99,.15-10.49,.21-8.59,1.84-17.06,3.89-25.38,.7-2.86,1.13-9,3.09-11.21,2.05-2.32,4.49-1.43,7.46-1.13Z"/>
    <path class="cls-1" d="M324.98,77.96c-7.11-5.53-10.82-15.49-19.32-18.48-1.18-.41-2.58-.64-3.61,.07-1.12,.78-1.33,2.36-1.2,3.72,.39,4.21,3.15,8.13,6.98,9.92,1.03,.48,2.13,.82,3.13,1.36,3.26,1.76,5.07,5.4,6.01,8.98,.76,2.89,1.12,5.97,2.73,8.49,1.6,2.52,5.03,4.25,7.63,2.78,2.1-1.19,3.37-3.55,5.44-4.9,1.86-1.21,4.54-1.14,4.45-4.02-.13-3.89-9.48-5.8-12.23-7.94Z"/>
    <path class="cls-1" d="M401.22,106.85c1.07,1.65,1.47,3.63,1.88,5.55,2.59,11.98,6.79,23.61,12.43,34.49-4.45-.35-9.01,1.43-12.05,4.69-3.38-3.66-5.31-8.63-5.28-13.61,.02-2.39,.46-4.75,.58-7.13,.24-4.74-.83-9.54-3.06-13.73-1.18-2.22-2.69-4.28-3.57-6.64-2.88-7.73,5.25-9.49,9.06-3.62Z"/>
    <path class="cls-1" d="M341.59,110.16c4.89,9.3,9.86,18.85,11.29,29.26,.34,2.48,.53,5.13,2.05,7.12s4.98,2.68,6.4,.62c.9-1.31,.66-3.21,1.69-4.41,.9-1.05,2.43-1.21,3.81-1.29,2.46-.15,4.91-.31,7.37-.46,1.07-.07,2.21-.16,3.05-.82,1.36-1.07,1.36-3.23,.5-4.73-.86-1.5-2.34-2.52-3.71-3.57-8.49-6.52-14.31-15.86-19.59-25.17-2.32-4.09-4.63-8.28-8.02-11.53s-8.12-5.48-12.75-4.69c-5.27,.89-8.33,6.55-3.36,9.95,1.77,1.21,4.17,1.08,6.05,2.6,2.27,1.82,3.87,4.61,5.21,7.14Z"/>
    <path class="cls-1" d="M414.09,150.45c2.81,2.09,2.94,6.17,2.89,9.68-.15,10.51,.52,21.04,1.99,31.45,.27,1.88,.6,3.85,1.8,5.33-2.03,2.27-5.43,2.6-8.47,2.49s-6.25-.48-8.98,.86c-.55,.27-1.14,.62-1.75,.5-.3-.06-.56-.24-.8-.42-3.33-2.58-3.57-7.65-2.2-11.63s3.97-7.45,5.48-11.39c2.79-7.3,.4-13.64,.61-20.97,.13-4.32,4.85-9.29,9.43-5.89Z"/>
    <path class="cls-1" d="M375.56,146.03c1.1-.52,2.24-1.05,3.45-1.13,3.38-.2,6.02,3.33,6.19,6.71,.17,3.38-1.41,6.58-2.86,9.63-10.27,21.54-16.72,44.66-23.12,67.65-.96,3.45-1.93,6.93-2.17,10.51-.14,2.02-.06,4.12-.82,5.99s-2.73,3.47-4.7,3c-1.04-.25-1.86-1.01-2.74-1.63-3.65-2.56-8.39-2.68-12.81-3.32s-9.28-2.3-11.09-6.37c-2.11-4.72,.91-10.05,3.98-14.21,4.27-5.78,8.88-11.31,12.77-17.35,6.63-10.31,11-21.89,15.32-33.36,1.26-3.35,2.54-6.74,3.2-10.27,.41-2.17-.09-5.5,.84-7.51,2.01-4.35,10.44-6.39,14.57-8.35Z"/>
    <path class="cls-1" d="M412.33,200.52c3.37-.15,7.11,2,7.46,5.36,.24,2.24-1.02,4.33-2.22,6.23-12.09,19.05-24.17,38.1-36.26,57.15-1.22,1.92-2.62,3.98-4.81,4.59-2.96,.83-5.9-1.4-7.81-3.81s-3.53-5.29-6.31-6.6c-3.02-1.42-7.17-.92-9.1-3.64-1.93-2.73,.12-6.68,2.99-8.38,2.87-1.7,6.34-2.06,9.4-3.39,7.02-3.06,10.76-10.6,16.02-16.17,4.15-4.38,9.36-7.61,13.68-11.82,3.67-3.58,5.72-7.45,7.05-12.33,1.25-4.59,4.48-6.93,9.9-7.18Z"/>
    <path class="cls-1" d="M205.08,391.94c3.09-1.04,5.73-3.07,8.66-4.49,3.51-1.7,7.45-2.5,11.34-2.3,2.17,.11,4.43,.57,6.1,1.98,2.74,2.31,3.07,6.38,2.74,9.95s-1.07,7.3,.25,10.63c.27,.67,.62,1.35,.57,2.07-.12,1.63-2.07,2.34-3.65,2.76-5.29,1.39-10.33,3.72-14.82,6.84-.82,.57-1.68,1.19-2.68,1.26-.54,.04-1.07-.09-1.59-.23-7.61-2.08-13.82-8.09-16.83-15.31-1-2.39-3.35-8.38-1.55-10.79,2.02-2.7,8.51-1.36,11.48-2.36Z"/>
    <path class="cls-1" d="M319.74,390.96c1.35,.54,2.2,1.94,2.48,3.36s.09,2.89-.11,4.33c-.48,3.55-.97,7.1-1.45,10.65-.23,1.66-.49,3.41-1.54,4.71-1.14,1.41-2.99,2.01-4.73,2.54-.87,.27-1.77,.53-2.67,.43-1.68-.19-2.95-1.59-4.52-2.22-2.84-1.14-6.28,.37-9.06-.92-1.6-.74-2.67-2.27-3.57-3.78-2.15-3.59-3.84-7.46-5-11.48-.45-1.57-.76-3.46,.34-4.67,2.11-2.3,10.02-2.29,12.89-1.99s5.85,.74,8.84,.61c1.67-.07,6.89-2.05,8.1-1.56Z"/>
    <path class="cls-1" d="M251.03,389.26c1.81,1.14,3.33,2.7,5.09,3.92,2.26,1.57,4.92,2.55,7.65,2.84,.97,1.88-.12,4.23-1.67,5.68s-3.52,2.39-5.01,3.89c-1.72,1.74-2.69,4.2-2.61,6.65,.03,.99,.16,2.15-.6,2.79-.41,.34-.97,.42-1.5,.47-4.28,.37-8.66-.38-12.57-2.16-2.65-1.21-5.3-3.21-5.74-6.08-.25-1.66,.28-3.32,.71-4.94,1.04-3.93-.14-11.11,2.98-13.74s10.12-1.31,13.28,.69Z"/>
    <path class="cls-1" d="M251.29,441.29c-.76,2.03-1.56,4.07-1.74,6.2-.47,5.46,3.16,10.82,2.01,16.17-5.69-.87-8.03-7.62-12.01-11.79-1.94-2.03-4.38-3.49-6.74-5.01-5.96-3.85-11.55-8.25-16.7-13.14-1.51-1.43-3.09-3.2-2.87-5.27,.21-1.98,1.98-3.36,3.61-4.5,2.42-1.69,4.85-3.36,7.28-5.01,2.32-1.58,4.71-3.16,7.42-3.86,4.99-1.29,12.93-.05,15.55,4.6,1.96,3.48,3.87,7.29,4.91,11.16,.89,3.32-.66,8.03,1.38,10.79,5.13,6.91,20.59,2.92,26.25-.81,2.21-1.45,4.47-3.33,7.11-3.15,3.38,.24,5.48,3.67,7,6.7,2.49,4.94,4.97,9.87,7.46,14.81,.46,.92,.94,1.99,.54,2.95-.28,.69-.95,1.13-1.58,1.51-6.72,4.14-14.07,7.56-21.91,8.5s-16.25-.84-22.17-6.06-8.75-14.17-5.66-21.43c.57-1.33,2.27-2.73,3.21-1.63"/>
    <path class="cls-1" d="M321.8,426.34c1.5,2.63,1.7,6.25-.36,8.47-.81,.87-1.88,1.44-2.79,2.2-2.17,1.8-3.33,4.51-4.3,7.15-.96,2.65-1.85,5.41-3.65,7.57s-4.83,3.6-7.48,2.65c-1.68-.6-2.91-2.03-4.04-3.41-4.25-5.23-8.16-10.73-11.7-16.47-.87-1.42-1.75-3.02-1.42-4.65,.49-2.35,3.13-3.43,4.86-5.08,1.35-1.29,2.19-3.02,3.45-4.39,2.56-2.8,6.62-3.83,10.41-3.58,6.59,.43,13.61,3.62,17.01,9.57Z"/>
    <path class="cls-1" d="M264.19,404.38c3.32-1.26,6.76,1.22,10.17,2.2,3.53,1.02,7.33,.4,10.95,.98,4.4,.7,8.47,3.24,11.04,6.88,.33,.46,.64,.97,.64,1.54,0,.51-.25,.98-.52,1.41-2.55,3.97-7.49,6-9.79,10.12-1.62,2.9-1.65,6.63-.07,9.55-6.39,3.01-13.05,5.42-19.88,7.2-2.55,.66-5.21,1.24-7.8,.8s-5.15-2.14-5.85-4.68c-.44-1.61-.11-3.31,.02-4.98,.49-6-3.05-10.81,.44-16.24,1.83-2.84,3.99-5.15,5.59-8.18,1.3-2.46,2.19-5.5,5.06-6.59Z"/>
    <path class="cls-1" d="M288.1,379.42c3.67,1.37,6.24,4.64,8.6,7.77,.49,.65,1.01,1.38,.95,2.2-.1,1.21-1.42,1.93-2.62,2.08s-2.46-.03-3.6,.39c-1.96,.73-2.89,3.07-2.76,5.16s1.06,4.02,1.76,5.99c.7,1.97,1.18,4.18,.41,6.12-2.26,.45-4.23-1.52-6.46-2.09-1.94-.5-4,.07-5.99-.12-2.97-.28-5.55-2.23-8.49-2.78-1.43-.27-2.9-.19-4.32-.49s-2.87-1.09-3.37-2.45c-.66-1.79,.63-3.8,2.3-4.72s3.64-1.06,5.52-1.41,3.86-1.03,4.92-2.61c1.3-1.92,.83-4.49,.21-6.71-1.23-4.38-3.05-5.72,1.22-6.91,3.16-.88,8.68-.56,11.71,.57Z"/>
    <path class="cls-1" d="M326.43,470.09c3.03,.35,6.09,.91,8.66,2.53,4.52,2.86,6.59,8.54,6.57,13.89s-1.79,10.51-3.42,15.6c-17.01,53.31-20.11,109.96-18.1,165.55,1.05,28.84,5.69,57.82,8.37,86.55,1.67,17.89,3.32,35.81,4.26,53.76,.74,13.93,5.27,36.09-17.31,29.23-5.04-1.53-9.51-4.5-13.67-7.73-3.32-2.58-6.64-5.59-7.79-9.63-.83-2.9-.45-5.99-.05-8.97,10.26-78.23-9.26-155.38-1.12-233.38,3.59-32.47,13.18-65.8,3.94-97.14-.96-3.24-1.8-7.45,.97-9.39,1.04-.73,2.36-.9,3.63-1.03,8.11-.82,16.31-.79,24.42,.08,.21,.02,.42,.05,.64,.07Z"/>
    <path class="cls-1" d="M245.89,464.09c12.04,6.97,26.36,10.05,40.18,8.33,1.63-.2,3.32-.47,4.89,.03,4.97,1.57,4.82,8.57,3.77,13.68-20.13,98.03,1.99,199.7-4.91,299.54-.68,9.84-1.67,19.78-5.04,29.05-2.61,7.18-7.21,14.32-14.43,16.8-13.47,4.63-18.72-8.14-16.41-18.37,3.43-15.15,6.35-29.7,7-45.31,1.3-31.21-2.98-62.3-4.53-93.42-2.01-40.28,.6-81.44-10.58-120.2-8.7-30.16-25.67-58.61-26.2-89.99-.1-5.8,2.49-13.52,8.25-12.85,2.52,.29,4.46,2.25,6.3,4,3.54,3.36,7.48,6.28,11.7,8.72Z"/>
  </g>
  <line class="cls-4" x1="47.22" y1="368.96" x2="47.22" y2="269.03"/>
  <line class="cls-2" x1="495.62" y1="571.96" x2="495.62" y2="472.03"/>
  <line class="cls-3" x1="495.62" y1="522.97" x2="495.62" y2="522.87"/>
  <!-- <text class="cls-5" transform="translate(16.48 924.63)"><tspan x="0" y="0">RADIANCE AI</tspan></text> -->
</svg>